<svg width="159" height="56" xmlns="http://www.w3.org/2000/svg" xmlns:xlink="http://www.w3.org/1999/xlink"><defs><path id="a" d="M59.69 28.157V.235H.097v27.922H59.69z"/></defs><g fill="none" fill-rule="evenodd"><g fill="#A8C72D"><path d="M18.001 34.128s-1.753 1.122-3.876 1.122c-3.93 0-4.46-2.618-3.93-7.161.585-4.6 1.753-7.164 5.682-7.164 2.124 0 3.61 1.123 3.61 1.123l-1.486 12.08zm4.088-17.265c-1.646-1.605-3.983-2.887-8.231-2.887-6.902 0-10.832 4.277-12.051 14.113-1.168 9.834 1.698 14.11 8.6 14.11 2.922 0 5.15-.748 6.85-1.71l-.477 3.688c-.373 3.153-2.549 4.544-6.16 4.544-2.814 0-5.681-.374-9.29-1.763l-.85 7.108c2.441.962 6.264 1.498 10.035 1.498 10.99 0 14.123-6.093 14.918-12.616l3.45-28.224h-5.095l-1.7 2.14zM46.167 28.251c-.636 5.342-1.963 7.266-4.882 7.266-2.92 0-3.716-1.924-3.078-7.266.636-5.341 1.963-7.266 4.881-7.266 2.92 0 3.715 1.925 3.079 7.266m-2.23-14.104c-9.816 0-13.213 5.77-14.22 14.104-1.01 8.333.956 14.104 10.772 14.104 9.817 0 13.159-5.77 14.168-14.104 1.008-8.334-.903-14.104-10.72-14.104M72.905 34.206s-1.768 1.133-3.913 1.133c-3.965 0-4.502-2.59-3.965-7.23.588-4.587 1.768-7.231 5.734-7.231 2.144 0 3.645 1.133 3.645 1.133l-1.5 12.195zm4.127-17.428c-1.662-1.62-4.02-2.915-8.307-2.915-6.969 0-10.934 4.317-12.168 14.246-1.179 9.927 1.716 14.245 8.683 14.245 4.288 0 6.968-1.295 9.005-2.914l1.234 2.159h5.144l3.27-26.982h-5.146l-1.715 2.16zM96.769.473h-8.656l-4.14 33.824c-.652 5.316 2.778 7.729 7.46 7.729 1.361 0 2.506-.219 2.506-.219l.871-7.073c-1.743 0-2.177-.603-2.016-1.643L96.77.473z"/></g><g transform="translate(98.127 14.068)"><mask id="b" fill="#fff"><use xlink:href="#a"/></mask><path fill="#161412" mask="url(#b)" d="M.097 28.157h56.148L59.69.235H3.547z"/></g><path d="M129.575 19.19v.003c-.014 0-.027-.004-.04-.004-1.288 0-2.47 1.047-2.626 2.327l-.349 2.848-.65 5.305-.248 2.026-7.827-12.506h-4.679l-1.15 9.379-.864 7.051-.285 2.327h2.08v-.026c.086.01.17.026.26.026 1.287 0 2.468-1.047 2.624-2.327l1.248-10.177 7.827 12.504h4.679l1.15-9.378.864-7.052.284-2.327h-2.298zM108.682 19.19v.003c-.015 0-.028-.004-.041-.004-1.287 0-2.468 1.047-2.625 2.327l-.35 2.848-.65 5.305-.729 5.95-.285 2.327h2.232l.001-.01c.037.001.07.01.107.01 1.287 0 2.468-1.047 2.625-2.327l1.728-14.103.286-2.327h-2.3zM152.154 21.516l.286-2.327h-2.3v.004c-.014 0-.027-.004-.04-.004-1.288 0-2.469 1.047-2.625 2.327l-.35 2.848-.65 5.306-.248 2.025-7.827-12.506h-4.679l-1.149 9.379-.865 7.051-.285 2.327h2.08v-.026c.087.01.17.026.26.026 1.287 0 2.468-1.047 2.625-2.327l1.247-10.177 7.826 12.504h4.68l1.15-9.378.864-7.052z" fill="#FFF"/></g></svg>